<svg id="Layer_1" data-name="Layer 1" xmlns="http://www.w3.org/2000/svg" viewBox="0 0 1196 194"><defs><style>.cls-1{fill:#720a1c;}.cls-2{fill:#e31337;}</style></defs><title>hiveinvite</title><path class="cls-1" d="M141.13,20.4V172H117.34V108H51.7v64H28V20.4H51.7v64h65.64V20.4Z"/><path class="cls-1" d="M170.3,20.4h23.79V172H170.3Z"/><path class="cls-1" d="M352.09,20.4l-70,154.7h-1.59L210.84,20.4h25.29L281.28,123,326.61,20.4Z"/><path class="cls-1" d="M392.73,43.82V82.66H450.1v23.7H392.73V148.3h66.49V172H368.94V20.4h90.28V43.82Z"/><path class="cls-2" d="M496.58,20.4h40.25V172H496.58Z"/><path class="cls-2" d="M694.17,20.21V173.5H681.38L603.41,98v74.1H563.16V18.9h13l77.68,75.23V20.21Z"/><path class="cls-2" d="M867,20.4,797.16,173.6H778.91L709.32,20.4h43.54l35,82.1,35.08-82.1Z"/><path class="cls-2" d="M882.19,20.4h40.25V172H882.19Z"/><path class="cls-2" d="M1052.6,58h-36.3V172H976V58H939.56V20.4h113Z"/><path class="cls-2" d="M1109.5,57.83V79h48.15v33.57H1109.5v21.73H1168V172h-98.28V20.4H1168V57.83Z"/></svg>