<svg id="Layer_1" data-name="Layer 1" xmlns="http://www.w3.org/2000/svg" viewBox="0 0 1920 1080"><defs><style>.cls-1{fill:#720a1c;}.cls-2{fill:#e31337;}.cls-3{fill:#aa0e29;}.cls-4{fill:#ea1c48;}.cls-5{fill:#d60d39;}</style></defs><title>hiveinvite</title><path class="cls-1" d="M388.68,765.89V956.62H358.74V876H276.16v80.58H246.34V765.89h29.82v80.45h82.58V765.89Z"/><path class="cls-1" d="M425.35,765.89h29.93V956.62H425.35Z"/><path class="cls-1" d="M654.05,765.89,566,960.52h-2L476.34,765.89h31.83L565,895l57-129.08Z"/><path class="cls-1" d="M705.15,795.35v48.86h72.18V874H705.15V926.8H788.8v29.82H675.22V765.89H788.8v29.46Z"/><path class="cls-2" d="M835.78,765.89h50.64V956.62H835.78Z"/><path class="cls-2" d="M1084.36,765.65V958.51h-16.09l-98.09-95v93.23H919.54V764h16.33l97.73,94.65v-93Z"/><path class="cls-2" d="M1301.82,765.89l-87.91,192.74h-23L1103.4,765.89h54.78l44,103.29,44.14-103.29Z"/><path class="cls-2" d="M1320.85,765.89h50.64V956.62h-50.64Z"/><path class="cls-2" d="M1535.24,813.22h-45.67v143.4h-50.76V813.22H1393V765.89h142.22Z"/><path class="cls-2" d="M1606.81,813V839.6h60.58v42.24h-60.58v27.33h73.6v47.45H1556.77V765.89h123.64V813Z"/><polygon class="cls-3" points="964.17 321.32 701 384.31 808.46 276.85 964.17 321.32"/><polygon class="cls-2" points="734.56 550.81 808.46 276.85 693.35 391.95 734.56 550.81"/><polygon class="cls-3" points="964.05 321.2 901.06 584.37 1008.52 476.91 964.05 321.2"/><polygon class="cls-2" points="734.56 550.81 1008.52 476.91 893.41 592.01 734.56 550.81"/><polygon class="cls-2" points="970.24 586.65 1023.18 816.48 907.15 700.45 930.1 626.79 970.24 586.65"/><polygon class="cls-1" points="1006.79 550.09 1236.62 603.04 1120.59 487.01 1046.93 509.95 1006.79 550.09"/><polygon class="cls-2" points="700.24 316.65 470.41 263.71 586.44 379.74 660.1 356.79 700.24 316.65"/><polygon class="cls-1" points="736.79 280.1 683.85 50.27 799.88 166.3 776.94 239.96 736.79 280.1"/><path class="cls-1" d="M1053.5,490.22l-149,149L700.91,584.69,646.36,381.12l149-149L999,286.65ZM895.33,605.09l124-124L974,311.64,804.53,266.25l-124,124L725.9,559.7Z"/><polygon class="cls-2" points="700.9 584.7 680.81 390.46 645.65 382.09 700.9 584.7"/><polygon class="cls-3" points="998.95 286.65 804.72 266.56 796.35 231.39 998.95 286.65"/><polygon class="cls-4" points="998.95 286.65 1019.04 480.88 1054.21 489.25 998.95 286.65"/><polygon class="cls-4" points="700.9 584.7 895.14 604.79 903.51 639.95 700.9 584.7"/><polygon class="cls-5" points="645.65 382.09 680.81 390.46 804.72 266.56 796.35 231.39 645.65 382.09"/><polygon class="cls-5" points="903.51 639.95 895.14 604.79 1019.04 480.88 1054.21 489.25 903.51 639.95"/><polygon class="cls-4" points="985.16 271.8 1014.36 242.6 1003.67 202.72 963.79 192.03 934.59 221.23 945.28 261.11 985.16 271.8"/><polygon class="cls-4" points="1061.91 348.55 1091.11 319.35 1080.42 279.47 1040.54 268.78 1011.34 297.98 1022.03 337.86 1061.91 348.55"/><polygon class="cls-3" points="985.16 271.8 963.79 192.03 934.59 221.23 945.28 261.11 985.16 271.8"/><polygon class="cls-3" points="1061.91 348.55 1091.11 319.35 1080.42 279.47 1040.54 268.78 1061.91 348.55"/><polygon class="cls-4" points="685.16 555.6 693.86 592.87 730.66 601.11 660.09 626.64 685.16 555.6"/><polygon class="cls-1" points="693.86 592.87 730.66 601.11 660.09 626.64 693.86 592.87"/></svg>