<svg id="Layer_1" data-name="Layer 1" xmlns="http://www.w3.org/2000/svg" viewBox="0 0 276.36 276.36"><defs><style>.cls-1{fill:#aa0e29;}.cls-2{fill:#e31337;}.cls-3{fill:#720a1c;}.cls-4{fill:#ea1c48;}.cls-5{fill:#d60d39;}</style></defs><title>hiveinvite</title><polygon class="cls-1" points="178.09 97.77 83.17 120.48 121.93 81.72 178.09 97.77"/><polygon class="cls-2" points="95.27 180.54 121.93 81.72 80.41 123.24 95.27 180.54"/><polygon class="cls-1" points="178.05 97.72 155.33 192.64 194.09 153.88 178.05 97.72"/><polygon class="cls-2" points="95.27 180.54 194.09 153.88 152.57 195.4 95.27 180.54"/><polygon class="cls-2" points="180.28 193.47 199.38 276.36 157.53 234.51 165.8 207.94 180.28 193.47"/><polygon class="cls-3" points="193.47 180.28 276.36 199.38 234.51 157.53 207.94 165.8 193.47 180.28"/><polygon class="cls-2" points="82.9 96.08 0 76.98 41.85 118.83 68.42 110.56 82.9 96.08"/><polygon class="cls-3" points="96.08 82.9 76.98 0 118.83 41.85 110.56 68.42 96.08 82.9"/><path class="cls-3" d="M210.31,158.68l-53.75,53.75L83.14,192.76,63.46,119.34l53.75-53.76,73.43,19.68Zm-57.05,41.44L198,155.38,181.62,94.27,120.51,77.9,75.78,122.64l16.37,61.1Z"/><polygon class="cls-2" points="83.14 192.76 75.89 122.7 63.21 119.68 83.14 192.76"/><polygon class="cls-1" points="190.64 85.26 120.58 78.01 117.56 65.33 190.64 85.26"/><polygon class="cls-4" points="190.64 85.26 197.88 155.32 210.57 158.34 190.64 85.26"/><polygon class="cls-4" points="83.14 192.76 153.19 200.01 156.21 212.69 83.14 192.76"/><polygon class="cls-5" points="63.21 119.68 75.89 122.7 120.58 78.01 117.56 65.33 63.21 119.68"/><polygon class="cls-5" points="156.21 212.69 153.19 200.01 197.88 155.32 210.57 158.34 156.21 212.69"/><polygon class="cls-4" points="185.66 79.9 196.19 69.37 192.34 54.99 177.95 51.13 167.42 61.66 171.28 76.05 185.66 79.9"/><polygon class="cls-4" points="213.35 107.59 223.88 97.06 220.02 82.67 205.64 78.81 195.11 89.35 198.96 103.73 213.35 107.59"/><polygon class="cls-1" points="185.66 79.9 177.95 51.13 167.42 61.66 171.28 76.05 185.66 79.9"/><polygon class="cls-1" points="213.35 107.59 223.88 97.06 220.02 82.67 205.64 78.81 213.35 107.59"/><polygon class="cls-4" points="77.45 182.27 80.59 195.71 93.87 198.68 68.41 207.89 77.45 182.27"/><polygon class="cls-3" points="80.59 195.71 93.87 198.68 68.41 207.89 80.59 195.71"/></svg>