<?xml version="1.0" encoding="UTF-8"?>
<!-- Generator: Adobe Illustrator 15.0.0, SVG Export Plug-In . SVG Version: 6.00 Build 0)  -->
<!DOCTYPE svg PUBLIC "-//W3C//DTD SVG 1.1//EN" "http://www.w3.org/Graphics/SVG/1.1/DTD/svg11.dtd">
<svg version="1.1" id="svg2" sodipodi:version="0.32" inkscape:version="0.47 r22583" inkscape:output_extension="org.inkscape.output.svg.inkscape" xmlns:inkscape="http://www.inkscape.org/namespaces/inkscape" xmlns:sodipodi="http://sodipodi.sourceforge.net/DTD/sodipodi-0.dtd" xmlns:svg="http://www.w3.org/2000/svg" xmlns:rdf="http://www.w3.org/1999/02/22-rdf-syntax-ns#" xmlns:cc="http://creativecommons.org/ns#" xmlns:dc="http://purl.org/dc/elements/1.1/" sodipodi:docname="youtube.svg" xmlns="http://www.w3.org/2000/svg" xmlns:xlink="http://www.w3.org/1999/xlink" x="0px" y="0px" width="256px" height="256px" viewBox="0 0 256 256" enable-background="new 0 0 256 256" xml:space="preserve">
<path id="rect1942" inkscape:export-xdpi="7.7063322" inkscape:export-ydpi="7.7063322" inkscape:export-filename="C:\Documents and Settings\Molumen\Desktop\path3511111.png" fill="#8E5C4F" d="  M210.018,10.505H45.983c-19.599,0-35.487,15.888-35.487,35.487v164.015c0,19.599,15.888,35.486,35.487,35.486h164.033  c19.604,0,35.487-15.888,37.487-34.819V46.66C245.504,26.394,229.615,10.505,210.018,10.505z"/>
<linearGradient id="SVGID_1_" gradientUnits="userSpaceOnUse" x1="94.9995" y1="1181.167" x2="94.9995" y2="1308.795" gradientTransform="matrix(1 0 0 1 34 -1170)">
	<stop offset="0" style="stop-color:#FFFFFF;stop-opacity:0.85"/>
	<stop offset="0.66" style="stop-color:#FFFFFF;stop-opacity:0"/>
</linearGradient>
<path fill="url(#SVGID_1_)" d="M210.018,10.505H45.983c-19.599,0-35.487,15.889-35.487,35.487v69.409  c36.33,14.751,76.046,22.896,117.671,22.896c42.263,0,82.558-8.395,119.336-23.576V46.66  C245.504,26.394,229.615,10.505,210.018,10.505z"/>
<g id="_x35_151e0c8492e5103c096af88a50059a5">
	<path fill="#FFFFFF" d="M183.93,37.347c-5.828,0-10.604,4.776-10.604,10.613v25.396c0,5.835,4.774,10.61,10.604,10.61h26.646   c5.834,0,10.609-4.774,10.609-10.61V47.959c0-5.837-4.775-10.613-10.609-10.613L183.93,37.347L183.93,37.347z M221.293,110.832   h-20.74c1.957,6.41,3.016,13.193,3.016,20.223c0,39.205-32.791,70.988-73.256,70.988c-40.457,0-73.253-31.783-73.253-70.988   c0-7.03,1.057-13.812,3.02-20.223h-21.64v99.555c0,5.156,4.211,9.375,9.367,9.375h164.125c5.146,0,9.363-4.219,9.363-9.375v-99.555   H221.293L221.293,110.832z M130.312,82.63c-26.142,0-47.331,20.536-47.331,45.866c0,25.328,21.189,45.865,47.331,45.865   c26.145,0,47.336-20.537,47.336-45.865C177.648,103.166,156.457,82.63,130.312,82.63z"/>
</g>
<g>
	
		<linearGradient id="SVGID_2_" gradientUnits="userSpaceOnUse" x1="94.9995" y1="1308.001" x2="94.9995" y2="1415.5118" gradientTransform="matrix(1 0 0 1 34 -1170)">
		<stop offset="0" style="stop-color:#000000;stop-opacity:0.15"/>
		<stop offset="0.6626" style="stop-color:#000000;stop-opacity:0"/>
	</linearGradient>
	<path fill="url(#SVGID_2_)" d="M10.496,115.401v94.605c0,19.6,15.888,35.486,35.487,35.486h164.033   c19.604,0,35.488-15.889,37.488-34.819v-95.952c-36.779,15.181-77.074,23.576-119.337,23.576   C86.542,138.298,46.825,130.152,10.496,115.401z"/>
</g>
<path fill="none" stroke="#8E5C4F" stroke-width="2" stroke-miterlimit="10" d="M247.503,114.721V46.66  c-1.999-20.266-17.888-36.155-37.485-36.155H45.982c-19.599,0-35.486,15.889-35.486,35.487v69.409"/>
<g>
	<g>
		<g>
			<path fill="none" stroke="#664238" stroke-width="2" stroke-miterlimit="10" d="M10.496,115.401v94.605     c0,19.6,15.888,35.486,35.486,35.486h164.034c19.604,0,35.487-15.889,37.487-34.819v-95.952"/>
		</g>
	</g>
</g>
</svg>