<?xml version="1.0" encoding="UTF-8"?>
<!-- Generator: Adobe Illustrator 15.0.1, SVG Export Plug-In . SVG Version: 6.00 Build 0)  -->
<!DOCTYPE svg PUBLIC "-//W3C//DTD SVG 1.1//EN" "http://www.w3.org/Graphics/SVG/1.1/DTD/svg11.dtd">
<svg version="1.1" id="svg2" xmlns:svg="http://www.w3.org/2000/svg" xmlns:rdf="http://www.w3.org/1999/02/22-rdf-syntax-ns#" inkscape:version="0.47 r22583" xmlns:dc="http://purl.org/dc/elements/1.1/" sodipodi:version="0.32" inkscape:output_extension="org.inkscape.output.svg.inkscape" sodipodi:docname="skype.svg" xmlns:sodipodi="http://sodipodi.sourceforge.net/DTD/sodipodi-0.dtd" xmlns:inkscape="http://www.inkscape.org/namespaces/inkscape" xmlns:cc="http://creativecommons.org/ns#" xmlns="http://www.w3.org/2000/svg" xmlns:xlink="http://www.w3.org/1999/xlink" x="0px" y="0px" width="256px" height="256px" viewBox="0 0 256 256" enable-background="new 0 0 256 256" xml:space="preserve">
<path id="rect1942_1_" inkscape:export-xdpi="7.7063322" inkscape:export-filename="C:\Documents and Settings\Molumen\Desktop\path3511111.png" inkscape:export-ydpi="7.7063322" fill="#4AC833" d="  M209.018,10.505H44.983c-19.599,0-35.487,15.888-35.487,35.487v164.015c0,19.599,15.888,35.486,35.487,35.486h164.033  c19.604,0,35.487-15.888,37.487-34.819V46.66C244.504,26.394,228.615,10.505,209.018,10.505z"/>
<linearGradient id="SVGID_1_" gradientUnits="userSpaceOnUse" x1="-96.5005" y1="-1287.167" x2="-96.5005" y2="-1414.796" gradientTransform="matrix(1 0 0 -1 224.5 -1276)">
	<stop offset="0" style="stop-color:#FFFFFF;stop-opacity:0.85"/>
	<stop offset="0.66" style="stop-color:#FFFFFF;stop-opacity:0"/>
</linearGradient>
<path fill="url(#SVGID_1_)" d="M209.018,10.505H44.983c-19.599,0-35.487,15.889-35.487,35.487v69.409  c36.33,14.751,76.046,22.896,117.671,22.896c42.263,0,82.558-8.395,119.336-23.576V46.66  C244.504,26.394,228.615,10.505,209.018,10.505z"/>
<path fill="none" stroke="#4AC833" stroke-width="2" stroke-miterlimit="10" d="M246.503,114.721V46.66  c-1.999-20.266-17.888-36.155-37.485-36.155H44.982c-19.599,0-35.486,15.889-35.486,35.487v69.409"/>
<g>
	
		<linearGradient id="SVGID_2_" gradientUnits="userSpaceOnUse" x1="-96.4995" y1="-1414.001" x2="-96.4995" y2="-1521.5126" gradientTransform="matrix(1 0 0 -1 224.5 -1276)">
		<stop offset="0" style="stop-color:#000000;stop-opacity:0.15"/>
		<stop offset="0.6626" style="stop-color:#000000;stop-opacity:0"/>
	</linearGradient>
	<path fill="url(#SVGID_2_)" d="M9.496,115.401v94.605c0,19.6,15.888,35.486,35.487,35.486h164.033   c19.604,0,35.488-15.889,37.488-34.819v-95.952c-36.779,15.181-77.074,23.576-119.337,23.576   C85.542,138.298,45.825,130.152,9.496,115.401z"/>
</g>
<g>
	<g>
		<g>
			<path fill="none" stroke="#3EA82B" stroke-width="2" stroke-miterlimit="10" d="M9.496,115.401v94.605     c0,19.6,15.888,35.486,35.486,35.486h164.034c19.604,0,35.487-15.889,37.487-34.819v-95.952"/>
		</g>
	</g>
</g>
<g id="g3027" transform="matrix(1 0 0 -1 0 1536)">
	<path fill="#FFFFFF" d="M216.57,1356.871c0,1.272-0.115,2.199-0.347,2.777c-0.347,0.926-2.575,2.632-6.683,5.12   c-4.107,2.487-9.229,5.351-15.361,8.591l-9.198,5.034c-0.579,0.347-1.679,1.099-3.299,2.257c-1.62,1.156-3.066,2.025-4.339,2.604   c-1.273,0.578-2.487,0.868-3.645,0.868c-2.084,0-4.803-1.881-8.158-5.642s-6.654-7.551-9.895-11.369   c-3.239-3.818-5.785-5.729-7.637-5.729c-0.811,0-1.765,0.203-2.864,0.608c-1.099,0.404-1.995,0.78-2.689,1.128   s-1.679,0.896-2.951,1.649c-1.272,0.751-2.083,1.243-2.431,1.475c-11.455,6.364-21.319,13.685-29.593,21.957   c-8.274,8.274-15.593,18.138-21.957,29.594c-0.231,0.348-0.724,1.157-1.476,2.43c-0.752,1.272-1.302,2.256-1.648,2.95   c-0.348,0.694-0.724,1.591-1.128,2.69c-0.405,1.1-0.607,2.055-0.607,2.864c0,1.504,1.186,3.443,3.558,5.815s4.976,4.6,7.811,6.683   s5.439,4.368,7.811,6.855c2.372,2.488,3.558,4.6,3.558,6.336c0,1.157-0.289,2.372-0.867,3.645c-0.579,1.273-1.447,2.72-2.604,4.339   c-1.157,1.62-1.909,2.719-2.256,3.298c-0.347,0.694-1.215,2.344-2.604,4.947c-1.389,2.603-2.835,5.235-4.339,7.897   c-1.505,2.662-3.038,5.41-4.601,8.245c-1.562,2.835-3.008,5.178-4.339,7.029c-1.331,1.852-2.285,2.894-2.864,3.125   c-0.579,0.231-1.504,0.347-2.777,0.347c-5.555,0-11.398-1.272-17.53-3.819c-5.323-2.43-9.952-7.897-13.886-16.402   c-3.934-8.505-5.902-16.056-5.902-22.651c0-1.852,0.145-3.819,0.435-5.901c0.289-2.083,0.578-3.848,0.868-5.294   c0.29-1.446,0.81-3.355,1.562-5.728c0.752-2.372,1.331-4.079,1.736-5.12c0.405-1.042,1.128-2.951,2.169-5.728   c1.042-2.777,1.678-4.513,1.91-5.207c6.943-18.977,19.469-37.521,37.578-55.631c18.11-18.108,36.653-30.635,55.63-37.577   c0.694-0.231,2.431-0.868,5.208-1.909s4.686-1.766,5.727-2.17c1.042-0.404,2.749-0.983,5.121-1.736   c2.372-0.752,4.281-1.271,5.729-1.561c1.445-0.289,3.21-0.58,5.293-0.869s4.05-0.434,5.902-0.434c6.595,0,14.146,1.967,22.65,5.901   c8.506,3.935,13.973,8.563,16.402,13.886C215.299,1345.473,216.57,1351.316,216.57,1356.871L216.57,1356.871z"/>
</g>
</svg>